# xmcd
#
# Track frame offsets:
#	150
#	13481
#	31276
#	45723
#	65104
#	83186
#	102478
#	113924
#	136768
#	150063
#	167796
#
# Disc length: 2452 seconds
# Revision: 0
# Processed by: cddbd v1.5.2PL0 Copyright (c) Steve Scherf et al.
# Submitted via: dBpowerAMP V12.0
#
DISCID=8c09920b
DTITLE=Sundance Head - 2016 and Gruene
DYEAR=2012
DGENRE=Blues
TTITLE0=Overcoat
TTITLE1=Highway 59
TTITLE2=Motown Blues
TTITLE3=With Me
TTITLE4=Come to Me
TTITLE5=2016 and Gruene
TTITLE6=The Most Wanted Woman in Town
TTITLE7=Daylights Gone
TTITLE8=My Babe
TTITLE9=This Time
TTITLE10=Last Call
EXTD=
EXTT0=
EXTT1=
EXTT2=
EXTT3=
EXTT4=
EXTT5=
EXTT6=
EXTT7=
EXTT8=
EXTT9=
EXTT10=
PLAYORDER=
